# AST/ASF file generated using VICON BodyLanguage
# -----------------------------------------------
:version 1.10
:name VICON
:units
  mass 1.0
  length 0.45
  angle deg
:documentation
   .ast/.asf automatically generated from VICON data using
   VICON BodyBuilder and BodyLanguage model FoxedUp or BRILLIANT.MOD
:root
   order TX TY TZ RX RY RZ
   axis XYZ
   position 0 0 0  
   orientation 0 0 0 
:bonedata
  begin
     id 1 
     name lhipjoint
     direction 0.653368 -0.678499 0.335782 
     length 2.51848 
     axis 0 0 0  XYZ
  end
  begin
     id 2 
     name lfemur
     direction 0.34202 -0.939693 0  
     length 6.57749  
     axis 0 0 20  XYZ
    dof rx ry rz
    limits (-160.0 20.0)
           (-70.0 70.0)
           (-60.0 70.0)
  end
  begin
     id 3 
     name ltibia
     direction 0.34202 -0.939693 0   
     length 7.94618   
     axis 0 0 20   XYZ
    dof rx
    limits (-10.0 170.0)
  end
  begin
     id 4 
     name lfoot
     direction 0.0811271 -0.222895 0.971461   
     length 2.31339   
     axis -90 7.62852e-016 20   XYZ
    dof rx rz
    limits (-45.0 90.0)
           (-70.0 20.0)
  end
  begin
     id 5 
     name ltoes
     direction 1.53568e-011 -4.21885e-011 1   
     length 1.15935   
     axis -90 7.62852e-016 20   XYZ
    dof rx
    limits (-90.0 20.0)
  end
  begin
     id 6 
     name rhipjoint
     direction -0.640058 -0.688614 0.340788   
     length 2.48149  
     axis 0 0 0  XYZ 
  end
  begin
     id 7 
     name rfemur
     direction -0.34202 -0.939693 0   
     length 6.57875   
     axis 0 0 -20   XYZ
    dof rx ry rz
    limits (-160.0 20.0)
           (-70.0 70.0)
           (-70.0 60.0)
  end
  begin
     id 8 
     name rtibia
     direction -0.34202 -0.939693 0   
     length 7.977   
     axis 0 0 -20   XYZ
    dof rx
    limits (-10.0 170.0)
 end
 begin
     id 9 
     name rfoot
     direction -0.0979793 -0.269196 0.958089   
     length 2.19857  
     axis -90 -7.62852e-016 -20   XYZ
    dof rx rz
    limits (-45.0 90.0)
           (-20.0 70.0)
  end
  begin
     id 10 
     name rtoes
     direction -1.53556e-011 -4.21868e-011 1   
     length 1.09838   
     axis -90 -7.62852e-016 -20   XYZ
    dof rx
    limits (-90.0 20.0)
  end
  begin
     id 11 
     name lowerback
     direction 0.0149039 0.998517 -0.0523597   
     length 2.10809   
     axis 0 0 0   XYZ
    dof rx ry rz
    limits (-20.0 45.0)
           (-30.0 30.0)
           (-30.0 30.0)
  end
  begin
     id 12 
     name upperback
     direction -0.00882659 0.999418 -0.0329624   
     length 2.1102   
     axis 0 0 0   XYZ
    dof rx ry rz
    limits (-20.0 45.0)
           (-30.0 30.0)
           (-30.0 30.0)
  end
  begin
     id 13 
     name thorax
     direction -0.0165585 0.999826 -0.0085833   
     length 2.11039   
     axis 0 0 0   XYZ
    dof rx ry rz
    limits (-20.0 45.0)
           (-30.0 30.0)
           (-30.0 30.0)
  end
  begin
     id 14 
     name lowerneck
     direction -0.0130877 0.999911 0.00260353   
     length 1.73253   
     axis 0 0 0   XYZ
    dof rx ry rz
    limits (-20.0 45.0)
           (-30.0 30.0)
           (-30.0 30.0)
  end
  begin
     id 15 
     name upperneck
     direction -0.0348454 0.928205 -0.370435   
     length 1.66692   
     axis 0 0 0   XYZ
    dof rx ry rz
    limits (-20.0 45.0)
           (-30.0 30.0)
           (-30.0 30.0)
  end
  begin
     id 16
     name head
     direction -0.00807754 0.992494 -0.122026  
     length 1.72765  
     axis 0 0 0   XYZ
    dof rx ry rz
    limits (-20.0 45.0)
           (-30.0 30.0)
           (-30.0 30.0)
  end
  begin
     id 17 
     name lclavicle
     direction 0.987582 0.144023 0.0627671  
     length 3.49235  
     axis 0 0 0   XYZ
    dof ry rz
    limits (-20.0 10.0)
           (0.0 20.0)
  end
  begin
     id 18 
     name lhumerus
     direction 1 -4.48958e-011 -1.45183e-018   
     length 5.41917   
     axis 180 -30 -90   XYZ
    dof rx ry rz
    limits (-60.0 90.0)
           (-90.0 90.0)
           (-90.0 90.0)
  end
  begin
     id 19
     name lradius
     direction 1 -4.48999e-011 5.75106e-027   
     length 2.44373   
     axis 180 -30 -90   XYZ
    dof rx
    limits (-10.0 170.0)
  end
  begin
     id 20
     name lwrist
     direction 1 -4.48987e-011 1.53461e-026   
     length 1.22186   
     axis -1.09697e-014 90 90   XYZ
    dof ry
    limits (-180.0 0.0)
 end
  begin
     id 21 
     name lhand
     direction 1 -4.48881e-011 3.06923e-026   
     length 0.727502   
     axis -1.95843e-014 90 90   XYZ
    dof rx rz
    limits (-90.0 90.0)
           (-45.0 45.0)
  end
  begin
     id 22 
     name lfingers
     direction 1 -4.48907e-011 6.13845e-026   
     length 0.586531   
     axis -3.91686e-014 90 90   XYZ
    dof rx
    limits (0.0 90.0)
  end
  begin
     id 23
     name lthumb
     direction 0.707107 -6.3487e-011 0.707107   
     length 0.842145   
     axis -90 45 2.85299e-015   XYZ
    dof rx rz
    limits (-45.0 45.0)
           (-45.0 45.0)
  end
  begin
     id 24 
     name rclavicle
     direction -0.980998 0.169556 0.0943023   
     length 3.29272  
     axis 0 0 0   XYZ 
    dof ry rz
    limits (-10.0 20.0)
           (-20.0 0.0)
  end
  begin
     id 25 
     name rhumerus
     direction -1 -1.83355e-005 2.45537e-005  
     length 5.58976   
     axis 180 30 90   XYZ
    dof rx ry rz
    limits (-90.0 60.0)
           (-90.0 90.0)
           (-90.0 90.0)
  end
  begin
     id 26 
     name rradius
     direction -1 -4.48967e-011 5.97228e-027   
     length 2.4806   
     axis 180 30 90   XYZ
    dof rx
    limits (-10.0 170.0)
  end
  begin
     id 27 
     name rwrist
     direction -1 -4.48963e-011 1.53461e-026   
     length 1.2403   
     axis -1.09697e-014 -90 -90   XYZ
    dof ry
    limits (-180.0 0.0)
  end
  begin
     id 28
     name rhand
     direction -1 -4.48881e-011 3.06923e-026   
     length 0.816009   
     axis -1.95843e-014 -90 -90   XYZ
    dof rx rz
    limits (-90.0 90.0)
           (-45.0 45.0)
  end
  begin
     id 29
     name rfingers
     direction -1 -4.49018e-011 6.13845e-026   
     length 0.657887   
     axis -3.91686e-014 -90 -90   XYZ
    dof rx
    limits (0.0 90.0)
  end
  begin
     id 30
     name rthumb
     direction -0.707107 -6.34872e-011 0.707107   
     length 0.944599   
     axis -90 -45 -2.85299e-015   XYZ
    dof rx rz
    limits (-45.0 45.0)
           (-45.0 45.0)
  end
:hierarchy
  begin
    root lhipjoint rhipjoint lowerback
    lhipjoint lfemur
    lfemur ltibia
    ltibia lfoot
    lfoot ltoes
    rhipjoint rfemur
    rfemur rtibia
    rtibia rfoot
    rfoot rtoes
    lowerback upperback
    upperback thorax
    thorax lowerneck lclavicle rclavicle
    lowerneck upperneck
    upperneck head
    lclavicle lhumerus
    lhumerus lradius
    lradius lwrist
    lwrist lhand lthumb
    lhand lfingers
    rclavicle rhumerus
    rhumerus rradius
    rradius rwrist
    rwrist rhand rthumb
    rhand rfingers
  end

#!OML:ASF F:\VICON\USERDATA\INSTALL\rory3\rory3.ASF
:FULLY-SPECIFIED
:DEGREES
135
root -0.189473 16.1625 -15.6366 -153.012 9.15198 178.075
lowerback -20.2259 0.743246 -4.26878
upperback -8.24378 3.3916 -2.01242
thorax 2.2937 2.39586 1.03739
lowerneck -7.55278 -3.34897 -0.256769
upperneck 37.7428 -0.183162 1.32196
head 14.1674 1.8278 1.00781
rclavicle 9.80257e-015 -2.26615e-014
rhumerus -94.8757 -88.0365 56.9118
rradius 10.8621
rwrist 86.5577
rhand 8.83796 6.27074
rfingers 7.12502
rthumb 34.0234 -20.5078
lclavicle 9.80257e-015 -2.26615e-014
lhumerus -26.0741 1.80442 25.773
lradius 21.8154
lwrist -3.21273
lhand 28.3964 21.3494
lfingers 7.12502
lthumb 52.2596 41.2995
rfemur -30.2363 -14.3174 22.5397
rtibia 63.0797
rfoot 25.1057 -17.6122
rtoes 12.6117
lfemur -44.7138 5.35718 -37.9873
ltibia 41.8937
lfoot -43.979 23.619
ltoes 12.8657
136
root -0.192129 16.1624 -15.6505 -153.013 9.16042 178.041
lowerback -20.2299 0.742132 -4.31412
upperback -8.1326 3.37409 -1.96101
thorax 2.40984 2.37317 1.11805
lowerneck -7.64892 -3.30633 -0.265075
upperneck 37.6748 -0.111418 1.20059
head 14.1561 1.82722 0.965139
rclavicle -1.55425e-014 -2.54444e-014
rhumerus -12.1229 -81.2757 -25.4237
rradius 11.0736
rwrist 76.5857
rhand 7.75685 6.12451
rfingers 7.12502
rthumb 32.9958 -20.8766
lclavicle -1.55425e-014 -2.54444e-014
lhumerus -25.4083 8.2008 23.4471
lradius 21.16
lwrist -3.41125
lhand 28.4888 20.8912
lfingers 7.12502
lthumb 52.3433 40.7907
rfemur -31.0062 -14.4782 22.1056
rtibia 64.109
rfoot 25.2019 -16.1341
rtoes 11.3444
lfemur -44.5943 5.20116 -37.9755
ltibia 41.832
lfoot -43.9874 23.8957
ltoes 12.5152
137
root -0.211178 16.1592 -15.6577 -153.171 8.94553 178.107
lowerback -20.05 0.835341 -3.94136
upperback -7.92222 3.36535 -1.96801
thorax 2.5646 2.33082 0.898665
lowerneck -7.72381 -3.28818 -0.358856
upperneck 37.5984 -0.125621 1.28035
head 14.1381 1.80417 1.00791
rclavicle -6.21202e-015 -3.61788e-014
rhumerus -5.82036 -75.6477 -31.4231
rradius 11.3153
rwrist 68.9462
rhand 5.677 5.67776
rfingers 7.12502
rthumb 31.0155 -21.7208
lclavicle -6.21202e-015 -3.61788e-014
lhumerus -24.9136 15.191 21.2041
lradius 20.4639
lwrist -3.49312
lhand 28.5138 20.254
lfingers 7.12502
lthumb 52.3659 40.1398
rfemur -31.4686 -14.9883 21.7118
rtibia 65.1594
rfoot 24.9698 -15.378
rtoes 12.4941
lfemur -44.2832 5.05403 -37.8854
ltibia 41.8287
lfoot -44.0843 23.8923
ltoes 12.4318
138
root -0.22671 16.163 -15.6581 -153.43 8.90221 178.251
lowerback -19.7535 0.973928 -3.6155
upperback -7.62655 3.39403 -1.94012
thorax 2.74378 2.2963 0.747484
lowerneck -7.89326 -3.26431 -0.474845
upperneck 37.4575 -0.191943 1.42223
head 14.1121 1.74921 1.06849
rclavicle -1.12065e-014 2.22639e-014
rhumerus -3.12785 -70.8687 -33.9379
rradius 11.7396
rwrist 61.8195
rhand 3.4737 5.40279
rfingers 7.12502
rthumb 28.9131 -22.3759
lclavicle -1.12065e-014 2.22639e-014
lhumerus -24.8457 20.4007 19.6622
lradius 20.3763
lwrist -1.15937
lhand 27.9969 20.7652
lfingers 7.12502
lthumb 51.8974 40.9316
rfemur -32.2703 -15.2568 21.4987
rtibia 66.2792
rfoot 26.7084 -12.8883
rtoes 5.91089
lfemur -43.9172 4.89542 -37.6559
ltibia 41.824
lfoot -44.774 23.4015
ltoes 13.709
139
root -0.208187 16.1636 -15.6514 -153.548 9.51064 178.17
lowerback -18.5682 0.96141 -4.26048
upperback -8.29096 3.48495 -1.87337
thorax 1.37983 2.42854 1.11148
lowerneck -7.12638 -3.36524 -0.247915
upperneck 37.6547 -0.0815199 1.10204
head 14.029 1.85622 0.927071
rclavicle -1.2393e-014 4.17448e-014
rhumerus -3.65688 -68.14 -33.4019
rradius 12.1361
rwrist 57.7989
rhand 1.47274 6.60798
rfingers 7.12502
rthumb 27.0002 -21.4824
lclavicle -1.2393e-014 4.17448e-014
lhumerus -25.7462 21.0637 18.8915
lradius 21.5385
lwrist 4.78296
lhand 26.5974 21.4894
lfingers 7.12502
lthumb 50.6236 42.3784
rfemur -33.3926 -14.1081 21.0127
rtibia 67.5812
rfoot 26.4236 -15.0249
rtoes 11.6876
lfemur -43.908 4.91621 -37.7015
ltibia 41.7823
lfoot -45.4104 23.2452
ltoes 14.7923
140
root -0.214341 16.1757 -15.6633 -153.56 9.22284 178.652
lowerback -18.9152 1.08761 -3.64693
upperback -7.6192 3.44302 -1.74835
thorax 2.30365 2.30918 0.935915
lowerneck -8.02629 -3.23736 -0.080021
upperneck 37.4661 -0.112623 0.997872
head 14.1401 1.77388 0.834667
rclavicle 5.57839e-015 -1.53064e-014
rhumerus 1.54087 -75.4432 -38.4085
rradius 12.056
rwrist 62.0111
rhand -1.05597 8.93223
rfingers 7.12502
rthumb 24.5786 -19.51
lclavicle 5.57839e-015 -1.53064e-014
lhumerus -25.9176 27.3184 17.4376
lradius 21.5337
lwrist 6.34245
lhand 26.9776 20.4057
lfingers 7.12502
lthumb 50.9703 41.1037
rfemur -34.4207 -13.93 21.2807
rtibia 68.7438
rfoot 26.4757 -15.6075
rtoes 13.2776
lfemur -43.8091 4.82432 -37.1056
ltibia 41.8506
lfoot -45.3329 23.768
ltoes 13.8849
141
root -0.215984 16.187 -15.6844 -153.57 9.09399 178.872
lowerback -19.5219 1.10514 -3.38513
upperback -6.9831 3.35 -1.58738
thorax 3.30317 2.18627 0.992249
lowerneck -8.33674 -3.12115 -0.48902
upperneck 37.1405 -0.137285 1.3475
head 14.0623 1.68936 1.0267
rclavicle 2.48481e-017 -8.54774e-015
rhumerus 10.5077 -79.7538 -47.3557
rradius 12.0343
rwrist 63.3208
rhand -4.11736 11.3681
rfingers 7.12502
rthumb 21.6413 -17.4425
lclavicle 2.48481e-017 -8.54774e-015
lhumerus -26.1819 35.2828 15.7909
lradius 20.8167
lwrist 8.04154
lhand 25.4943 21.2635
lfingers 7.12502
lthumb 49.6146 42.6863
rfemur -35.5044 -13.7531 21.2505
rtibia 69.9732
rfoot 26.2304 -15.7492
rtoes 13.6417
lfemur -43.6995 4.86475 -36.8548
ltibia 41.8989
lfoot -45.4206 23.8229
ltoes 13.4986
142
root -0.229029 16.1802 -15.6823 -153.868 8.58162 179.402
lowerback -18.556 1.13942 -2.58604
upperback -7.1641 3.18214 -1.38585
thorax 2.64459 2.10408 0.668402
lowerneck -7.8036 -3.06309 -0.471245
upperneck 37.0827 0.0486104 1.2818
head 13.914 1.78912 1.02209
rclavicle 1.23992e-014 3.45885e-014
rhumerus 2.37628 -68.1383 -39.3751
rradius 12.5792
rwrist 48.954
rhand -7.41742 12.2135
rfingers 7.12502
rthumb 18.4693 -16.9297
lclavicle 1.23992e-014 3.45885e-014
lhumerus -27.9821 39.0864 13.8801
lradius 20.9449
lwrist 9.07481
lhand 28.4261 16.3215
lfingers 7.12502
lthumb 52.2865 36.2554
rfemur -36.1016 -13.4411 21.6315
rtibia 71.1904
rfoot 24.8546 -16.8054
rtoes 16.7963
lfemur -43.3386 4.54543 -36.0824
ltibia 42.023
lfoot -45.7185 23.774
ltoes 14.0172
143
root -0.221209 16.1671 -15.6669 -154.189 8.94915 179.245
lowerback -18.115 1.20294 -2.97651
upperback -6.81508 3.23536 -1.41143
thorax 2.76625 2.09086 0.862225
lowerneck -8.22803 -2.92376 -0.200075
upperneck 36.9298 0.156949 1.06232
head 13.9343 1.80265 0.889916
rclavicle -4.53478e-015 -3.97569e-016
rhumerus 1.62695 -55.7373 -39.3421
rradius 13.8659
rwrist 30.5212
rhand -13.701 8.82976
rfingers 7.12502
rthumb 12.4174 -20.7814
lclavicle -4.53478e-015 -3.97569e-016
lhumerus -27.8402 40.4783 15.1469
lradius 23.0025
lwrist 18.1637
lhand 21.8278 20.6193
lfingers 7.12502
lthumb 46.2339 43.6158
rfemur -37.1492 -12.586 21.1653
rtibia 72.6183
rfoot 23.1036 -17.5234
rtoes 18.2392
lfemur -43.1724 4.55737 -36.2752
ltibia 42.0698
lfoot -45.6165 24.6502
ltoes 12.9026
144
root -0.222898 16.1683 -15.6698 -154.576 8.97234 179.072
lowerback -17.685 1.17464 -3.18901
upperback -6.37985 3.1262 -1.38489
thorax 2.99447 1.98748 0.982041
lowerneck -8.82499 -2.82076 -0.144968
upperneck 36.8045 0.208015 0.903099
head 14.009 1.75939 0.81303
rclavicle 5.34979e-014 -1.33186e-014
rhumerus 9.25528 -72.8038 -47.0702
rradius 12.4713
rwrist 46.549
rhand -14.7998 17.5495
rfingers 7.12502
rthumb 11.3579 -12.1229
lclavicle 5.34979e-014 -1.33186e-014
lhumerus -28.5858 42.3493 15.4773
lradius 24.367
lwrist 23.3322
lhand 21.0801 18.9154
lfingers 7.12502
lthumb 45.5399 42.1991
rfemur -38.3697 -12.2739 20.7076
rtibia 74.1891
rfoot 22.0203 -16.5575
rtoes 14.1031
lfemur -42.7576 4.54635 -36.4784
ltibia 42.1335
lfoot -45.3633 25.4979
ltoes 11.1196
145
root -0.232413 16.1595 -15.6689 -155.01 8.77908 178.984
lowerback -16.9031 1.10361 -3.11179
upperback -6.44415 2.96165 -1.3181
thorax 2.5216 1.90652 0.940664
lowerneck -8.14947 -2.84739 -0.406937
upperneck 36.7349 0.30036 0.942507
head 13.8276 1.79555 0.886856
rclavicle 7.00716e-015 1.5704e-014
rhumerus 12.6665 -76.6451 -51.0133
rradius 12.1798
rwrist 47.7813
rhand -17.1044 22.6752
rfingers 7.12502
rthumb 9.13456 -7.10694
lclavicle 7.00716e-015 1.5704e-014
lhumerus -29.1565 40.209 17.1222
lradius 26.8166
lwrist 32.2419
lhand 18.9034 18.0952
lfingers 7.12502
lthumb 43.5121 42.1577
rfemur -39.3412 -12.1782 20.3698
rtibia 75.6603
rfoot 19.4982 -16.9155
rtoes 14.789
lfemur -42.3024 4.3734 -36.4996
ltibia 42.2848
lfoot -45.5793 25.7124
ltoes 10.7356
146
root -0.240403 16.1497 -15.6335 -155.443 8.78777 178.939
lowerback -15.9086 1.1114 -3.09784
upperback -6.34187 2.87118 -1.31284
thorax 2.10827 1.84223 0.882254
lowerneck -7.98516 -2.77399 -0.30381
upperneck 36.5797 0.3955 0.851801
head 13.7187 1.82954 0.837447
rclavicle -3.60794e-014 -1.39149e-014
rhumerus 5.85719 -64.5872 -44.9423
rradius 12.9926
rwrist 30.7072
rhand -21.3985 22.5758
rfingers 7.12502
rthumb 4.98961 -7.34544
lclavicle -3.60794e-014 -1.39149e-014
lhumerus -30.1762 42.9815 16.9598
lradius 27.7971
lwrist 35.8788
lhand 18.224 16.6411
lfingers 7.12502
lthumb 42.8772 40.9303
rfemur -40.5406 -11.6275 20.1122
rtibia 77.1396
rfoot 17.0282 -14.9114
rtoes 8.57486
lfemur -42.0539 4.02245 -36.3961
ltibia 42.45
lfoot -46.1019 25.9466
ltoes 11.4167
147
root -0.25313 16.1582 -15.6254 -155.579 8.26704 179.833
lowerback -14.915 1.1573 -1.97287
upperback -6.55981 2.71312 -1.03324
thorax 1.39311 1.75723 0.468856
lowerneck -7.29787 -2.68693 -0.123031
upperneck 36.3261 0.602671 0.626511
head 13.4512 1.92973 0.733505
rclavicle 1.66109e-014 -1.74931e-014
rhumerus 59.3936 -84.8595 -99.4727
rradius 11.2781
rwrist 50.8637
rhand -22.8886 30.3767
rfingers 7.12502
rthumb 3.55072 0.426479
lclavicle 1.66109e-014 -1.74931e-014
lhumerus -31.4265 45.739 16.5253
lradius 28.5494
lwrist 38.6897
lhand 16.6795 15.9298
lfingers 7.12502
lthumb 41.4302 40.708
rfemur -41.5566 -11.1311 20.9628
rtibia 78.2107
rfoot 14.7891 -13.5007
rtoes 2.5937
lfemur -41.9618 3.58056 -35.1984
ltibia 42.7207
lfoot -46.4861 26.2167
ltoes 11.3676
148
root -0.249244 16.1546 -15.5938 -155.979 8.36445 179.565
lowerback -14.0676 1.12547 -2.43516
upperback -6.05403 2.59972 -1.05273
thorax 1.45649 1.65309 0.671453
lowerneck -8.31425 -2.46431 0.256047
upperneck 36.1571 0.732073 0.334962
head 13.5968 1.92157 0.556322
rclavicle -2.52581e-014 -5.56597e-015
rhumerus 94.0867 -84.2216 -135.264
rradius 11.1957
rwrist 49.6829
rhand -25.6296 32.943
rfingers 7.12502
rthumb 0.903483 2.96518
lclavicle -2.52581e-014 -5.56597e-015
lhumerus -32.4855 51.6946 15.6882
lradius 28.6557
lwrist 38.8579
lhand 16.0868 14.8747
lfingers 7.12502
lthumb 40.8737 39.8312
rfemur -43.0165 -10.4541 20.5078
rtibia 79.5333
rfoot 12.8002 -14.0084
rtoes 0.622646
lfemur -41.7318 3.19778 -35.3135
ltibia 42.8642
lfoot -47.0418 26.1048
ltoes 12.2013
149
root -0.242416 16.1481 -15.5708 -156.3 8.55591 179.282
lowerback -12.8486 1.0471 -2.94
upperback -6.43577 2.52562 -1.06452
thorax 0.385226 1.65224 0.87324
lowerneck -7.28486 -2.49094 0.243222
upperneck 36.0252 0.829957 0.323609
head 13.3126 2.00626 0.563974
rclavicle -2.4376e-014 -1.07344e-014
rhumerus 55.3412 -83.734 -97.6192
rradius 11.3865
rwrist 43.4413
rhand -27.7675 35.8343
rfingers 7.12502
rthumb -1.16132 5.85773
lclavicle -2.4376e-014 -1.07344e-014
lhumerus -33.0607 51.5402 16.906
lradius 30.3058
lwrist 42.7692
lhand 14.3313 13.5901
lfingers 7.12502
lthumb 39.2218 39.0463
rfemur -44.6311 -9.65072 20.0377
rtibia 80.6807
rfoot 10.584 -15.8526
rtoes 2.38345
lfemur -41.5195 2.77503 -35.4255
ltibia 42.9954
lfoot -48.1946 25.2089
ltoes 14.611
